<svg width="257" height="120" viewBox="0 0 257 120" fill="none" xmlns="http://www.w3.org/2000/svg">
<g filter="url(#filter0_b_471_10145)">
<path d="M0 119.573H86.7519C86.7519 105.413 75.3391 93.95 61.241 93.95H25.5109C11.4128 93.95 0 105.413 0 119.573Z" fill="#F15A29"/>
<path d="M34.5366 66.3044V89.3049L43.3386 100.393L52.2152 89.3049V66.3044H34.5366Z" fill="#F8AA97"/>
<path d="M34.5366 80.9139C34.5366 85.7837 38.4155 89.9043 43.264 89.9792H43.3386H43.4132C48.2618 89.9792 52.1406 85.8586 52.1406 80.9139V69.2263H34.462V80.9139H34.5366Z" fill="#F58A74"/>
<path d="M43.3386 100.393L34.5366 89.3049L29.0167 93.95L33.7161 109.608L38.3409 98.7449L43.3386 100.393Z" fill="#F7941E"/>
<path d="M43.3386 100.393L52.2152 89.3049L57.6605 93.95L52.9611 109.608L48.3364 98.7449L43.3386 100.393Z" fill="#F7941E"/>
<path d="M43.3386 106.761C44.3274 106.761 45.1289 105.956 45.1289 104.963C45.1289 103.97 44.3274 103.165 43.3386 103.165C42.3499 103.165 41.5484 103.97 41.5484 104.963C41.5484 105.956 42.3499 106.761 43.3386 106.761Z" fill="white"/>
<path d="M43.3386 118.149C44.3274 118.149 45.1289 117.344 45.1289 116.351C45.1289 115.358 44.3274 114.553 43.3386 114.553C42.3499 114.553 41.5484 115.358 41.5484 116.351C41.5484 117.344 42.3499 118.149 43.3386 118.149Z" fill="white"/>
<path d="M77.2785 56.34C82.5105 56.34 86.7518 52.0801 86.7518 46.8252C86.7518 41.5703 82.5105 37.3103 77.2785 37.3103C72.0465 37.3103 67.8052 41.5703 67.8052 46.8252C67.8052 52.0801 72.0465 56.34 77.2785 56.34Z" fill="#F8AA97"/>
<path d="M77.2785 52.4441C80.3683 52.4441 82.873 49.9284 82.873 46.8251C82.873 43.7218 80.3683 41.2061 77.2785 41.2061C74.1888 41.2061 71.684 43.7218 71.684 46.8251C71.684 49.9284 74.1888 52.4441 77.2785 52.4441Z" fill="#F58A74"/>
<path d="M9.47334 56.34C14.7053 56.34 18.9467 52.0801 18.9467 46.8252C18.9467 41.5703 14.7053 37.3103 9.47334 37.3103C4.24137 37.3103 0 41.5703 0 46.8252C0 52.0801 4.24137 56.34 9.47334 56.34Z" fill="#F8AA97"/>
<path d="M9.47333 52.4441C12.5631 52.4441 15.0678 49.9284 15.0678 46.8251C15.0678 43.7218 12.5631 41.2061 9.47333 41.2061C6.38358 41.2061 3.87885 43.7218 3.87885 46.8251C3.87885 49.9284 6.38358 52.4441 9.47333 52.4441Z" fill="#F58A74"/>
<path d="M12.6063 30.8671V51.1705C12.6063 68.1774 26.3314 82.0376 43.3387 82.0376C60.2713 82.0376 74.071 68.2523 74.071 51.1705V30.8671C74.071 13.8602 60.3459 0 43.3387 0C26.406 0 12.6063 13.8602 12.6063 30.8671Z" fill="#F8AA97"/>
<path d="M26.8535 40.9813C28.8722 40.9813 30.5086 39.3377 30.5086 37.3102C30.5086 35.2828 28.8722 33.6392 26.8535 33.6392C24.8349 33.6392 23.1985 35.2828 23.1985 37.3102C23.1985 39.3377 24.8349 40.9813 26.8535 40.9813Z" fill="#562617"/>
<path d="M59.8237 40.9813C61.8424 40.9813 63.4788 39.3377 63.4788 37.3102C63.4788 35.2828 61.8424 33.6392 59.8237 33.6392C57.8051 33.6392 56.1686 35.2828 56.1686 37.3102C56.1686 39.3377 57.8051 40.9813 59.8237 40.9813Z" fill="#562617"/>
<path d="M66.6117 77.4676C73.6235 71.9984 73.3997 61.2848 66.015 56.2652C60.7189 52.669 53.4087 49.822 43.3386 49.822C33.2686 49.822 25.9584 52.669 20.6623 56.2652C13.2776 61.2848 13.0538 71.9984 20.0656 77.4676C26.4806 82.4872 34.5366 85.4091 43.3386 85.4091C52.1406 85.4091 60.1967 82.4123 66.6117 77.4676Z" fill="#E6E7E8"/>
<path d="M32.2242 54.0924C32.2242 54.467 32.2242 54.8416 32.2242 55.2162C32.2242 61.2098 37.222 66.3044 43.3386 66.3793C49.4553 66.3044 54.453 61.2098 54.453 55.2162C54.453 54.8416 54.453 54.467 54.453 54.0924C47.1429 52.9686 39.609 52.9686 32.2242 54.0924Z" fill="white"/>
<path d="M73.3251 44.053C73.3251 44.053 64.896 31.0169 69.7446 14.6843C69.7446 14.6843 78.2482 18.3554 79.5909 22.9255C80.9336 27.4957 78.2482 27.4208 78.2482 27.4208C78.2482 27.4208 84.3648 40.307 77.5023 39.2581C77.4277 39.2581 75.712 42.4797 73.3251 44.053Z" fill="#E6E7E8"/>
<path d="M13.7997 44.053C13.7997 44.053 22.2287 31.0169 17.3802 14.6843C17.3802 14.6843 8.87655 18.3554 7.53388 22.9255C6.1912 27.4957 8.87654 27.4208 8.87654 27.4208C8.87654 27.4208 2.7599 40.307 9.62248 39.2581C9.69707 39.2581 11.3381 42.4797 13.7997 44.053Z" fill="#E6E7E8"/>
<path d="M43.3386 8.54079C47.7879 8.54079 51.3947 7.23262 51.3947 5.61891C51.3947 4.00519 47.7879 2.69702 43.3386 2.69702C38.8894 2.69702 35.2825 4.00519 35.2825 5.61891C35.2825 7.23262 38.8894 8.54079 43.3386 8.54079Z" fill="#FABEAF"/>
<path d="M66.1642 93.95H60.1967V119.573H66.1642V93.95Z" fill="#562617"/>
<path d="M26.5552 93.95H20.5877V119.573H26.5552V93.95Z" fill="#562617"/>
</g>
<path d="M103 119.751H176C176 107.835 166.396 98.1897 154.533 98.1897H124.467C112.604 98.1897 103 107.835 103 119.751Z" fill="#1C75BC"/>
<path d="M124.404 98.1897L139.532 119.751L154.659 98.1897H124.404Z" fill="#27AAE1"/>
<path d="M127.417 98.1897L139.531 115.401L151.583 98.1897H127.417Z" fill="#DCDDDE"/>
<path d="M168.029 66.5417C172.431 66.5417 176 62.9571 176 58.5351C176 54.1132 172.431 50.5286 168.029 50.5286C163.626 50.5286 160.057 54.1132 160.057 58.5351C160.057 62.9571 163.626 66.5417 168.029 66.5417Z" fill="#F8AA97"/>
<path d="M168.028 63.263C170.628 63.263 172.736 61.1461 172.736 58.5347C172.736 55.9233 170.628 53.8064 168.028 53.8064C165.428 53.8064 163.32 55.9233 163.32 58.5347C163.32 61.1461 165.428 63.263 168.028 63.263Z" fill="#F58A74"/>
<path d="M110.972 66.5417C115.374 66.5417 118.943 62.9571 118.943 58.5351C118.943 54.1132 115.374 50.5286 110.972 50.5286C106.569 50.5286 103 54.1132 103 58.5351C103 62.9571 106.569 66.5417 110.972 66.5417Z" fill="#F8AA97"/>
<path d="M110.972 63.263C113.572 63.263 115.68 61.1461 115.68 58.5347C115.68 55.9233 113.572 53.8064 110.972 53.8064C108.372 53.8064 106.264 55.9233 106.264 58.5347C106.264 61.1461 108.372 63.263 110.972 63.263Z" fill="#F58A74"/>
<path d="M132.062 74.9263V94.2807L139.531 103.611L146.938 94.2807V74.9263H132.062Z" fill="#F8AA97"/>
<path d="M132.062 87.2199C132.062 91.3177 135.326 94.7851 139.406 94.8482H139.469H139.531C143.611 94.8482 146.875 91.3808 146.875 87.2199V77.385H131.999V87.2199H132.062Z" fill="#F58A74"/>
<path d="M113.671 36.5957V62.1915C113.671 76.5025 125.22 88.1656 139.531 88.1656C153.78 88.1656 165.392 76.5655 165.392 62.1915V36.5957C165.392 26.95 157.609 19.1326 148.005 19.1326H131.057C121.454 19.1326 113.671 26.95 113.671 36.5957Z" fill="#F8AA97"/>
<path d="M125.66 53.6177C127.358 53.6177 128.735 52.2347 128.735 50.5286C128.735 48.8225 127.358 47.4395 125.66 47.4395C123.961 47.4395 122.584 48.8225 122.584 50.5286C122.584 52.2347 123.961 53.6177 125.66 53.6177Z" fill="#562617"/>
<path d="M153.34 53.618C155.039 53.618 156.416 52.2349 156.416 50.5288C156.416 48.8228 155.039 47.4397 153.34 47.4397C151.642 47.4397 150.265 48.8228 150.265 50.5288C150.265 52.2349 151.642 53.618 153.34 53.618Z" fill="#562617"/>
<path d="M161.752 75.4311C159.115 71.081 152.713 63.894 139.531 63.894C126.35 63.894 119.948 71.081 117.311 75.4311C121.831 82.9963 130.053 88.1029 139.531 88.1029C148.947 88.1659 157.232 83.0594 161.752 75.4311Z" fill="#E19B8A"/>
<path d="M130.179 64.6504C130.179 64.9656 130.179 65.2808 130.179 65.5961C130.179 70.6396 134.384 74.9266 139.531 74.9896C144.678 74.9266 148.884 70.6396 148.884 65.5961C148.884 65.2808 148.884 64.9656 148.884 64.6504C142.67 63.7047 136.33 63.7047 130.179 64.6504Z" fill="white"/>
<path d="M139.531 61.5613C132.501 61.6243 126.789 65.0917 126.789 69.1265C126.789 69.3787 126.789 69.6309 126.789 69.8831C132.564 70.3874 139.531 68.0548 139.531 68.0548C139.531 68.0548 146.499 70.3874 152.273 69.8831C152.273 69.6309 152.273 69.3787 152.273 69.1265C152.273 65.0287 146.561 61.6243 139.531 61.5613Z" fill="#552419"/>
<path d="M167.275 29.4718C162.881 14.4044 147.44 11 139.531 11C131.622 11 116.119 14.3413 111.725 29.4718C107.331 44.5393 113.671 51.0329 113.671 51.0329C113.671 51.0329 120.952 42.9002 120.952 29.1566C120.952 29.1566 128.735 31.174 139.531 31.174C150.327 31.174 158.048 29.1566 158.048 29.1566C158.048 42.9002 165.329 51.0329 165.329 51.0329C165.329 51.0329 171.732 44.5393 167.275 29.4718Z" fill="#552419"/>
<path d="M120.952 29.0938C120.952 29.0938 127.291 41.7025 148.884 40.946C148.884 41.0091 145.557 30.5438 120.952 29.0938Z" fill="#552419"/>
<path d="M120.952 29.0935C120.952 29.0935 134.761 41.387 165.392 36.5957C165.392 36.5957 167.526 21.9065 147.001 20.7086C126.412 19.4478 120.952 29.0935 120.952 29.0935Z" fill="#552419"/>
<path d="M139.531 103.612L132.062 94.281L127.417 98.1897L131.434 111.366L135.326 102.225L139.531 103.612Z" fill="#F1F2F2"/>
<path d="M139.531 103.612L146.938 94.281L151.583 98.1897L147.628 111.366L143.737 102.225L139.531 103.612Z" fill="#F1F2F2"/>
<path d="M139.531 108.97C140.363 108.97 141.038 108.293 141.038 107.457C141.038 106.622 140.363 105.944 139.531 105.944C138.699 105.944 138.025 106.622 138.025 107.457C138.025 108.293 138.699 108.97 139.531 108.97Z" fill="#808285"/>
<path d="M192 119.833H257C257 109.223 248.449 100.635 237.886 100.635H211.114C200.551 100.635 192 109.223 192 119.833Z" fill="#FFC62D"/>
<path d="M249.902 72.4551C253.822 72.4551 257 69.2632 257 65.3259C257 61.3886 253.822 58.1968 249.902 58.1968C245.982 58.1968 242.804 61.3886 242.804 65.3259C242.804 69.2632 245.982 72.4551 249.902 72.4551Z" fill="#F8AA97"/>
<path d="M249.902 69.536C252.217 69.536 254.094 67.651 254.094 65.3258C254.094 63.0007 252.217 61.1157 249.902 61.1157C247.587 61.1157 245.711 63.0007 245.711 65.3258C245.711 67.651 247.587 69.536 249.902 69.536Z" fill="#F58A74"/>
<path d="M199.098 72.4551C203.018 72.4551 206.196 69.2632 206.196 65.3259C206.196 61.3886 203.018 58.1968 199.098 58.1968C195.178 58.1968 192 61.3886 192 65.3259C192 69.2632 195.178 72.4551 199.098 72.4551Z" fill="#F8AA97"/>
<path d="M199.098 69.536C201.413 69.536 203.29 67.651 203.29 65.3258C203.29 63.0007 201.413 61.1157 199.098 61.1157C196.783 61.1157 194.906 63.0007 194.906 65.3258C194.906 67.651 196.783 69.536 199.098 69.536Z" fill="#F58A74"/>
<path d="M224.472 111.974C230.117 111.974 234.644 107.371 234.644 101.757V100.635H214.244V101.757C214.3 107.371 218.883 111.974 224.472 111.974Z" fill="#FAA62C"/>
<path d="M217.877 80.0332V101.757C217.877 105.406 220.839 108.438 224.528 108.438C228.161 108.438 231.179 105.462 231.179 101.757V80.0332H217.877Z" fill="#F8AA97"/>
<path d="M217.877 90.8674C217.877 94.5162 220.783 97.6036 224.416 97.6597H224.472H224.528C228.161 97.6597 231.067 94.5723 231.067 90.8674V82.1104H217.821V90.8674H217.877Z" fill="#F58A74"/>
<path d="M201.446 45.7908V68.5816C201.446 81.3243 211.729 91.7093 224.472 91.7093C237.159 91.7093 247.499 81.3804 247.499 68.5816V45.7908C247.499 37.2022 240.569 30.2415 232.017 30.2415H216.927C208.376 30.2415 201.446 37.2022 201.446 45.7908Z" fill="#F8AA97"/>
<path d="M212.12 60.9473C213.633 60.9473 214.859 59.7158 214.859 58.1967C214.859 56.6775 213.633 55.446 212.12 55.446C210.608 55.446 209.382 56.6775 209.382 58.1967C209.382 59.7158 210.608 60.9473 212.12 60.9473Z" fill="#562617"/>
<path d="M236.823 60.9473C238.336 60.9473 239.562 59.7158 239.562 58.1967C239.562 56.6775 238.336 55.446 236.823 55.446C235.311 55.446 234.085 56.6775 234.085 58.1967C234.085 59.7158 235.311 60.9473 236.823 60.9473Z" fill="#562617"/>
<path d="M216.144 70.7709C216.144 71.0516 216.144 71.3323 216.144 71.6129C216.144 76.1037 219.889 79.9209 224.472 79.9771C229.055 79.9209 232.8 76.1037 232.8 71.6129C232.8 71.3323 232.8 71.0516 232.8 70.7709C227.322 69.9289 221.677 69.9289 216.144 70.7709Z" fill="white"/>
<path d="M249.231 39.4475C245.319 26.0313 231.57 23 224.528 23C217.486 23 203.681 25.9752 199.769 39.4475C195.857 52.9199 201.501 58.6457 201.501 58.6457C201.501 58.6457 207.985 51.4043 207.985 39.1669C207.985 39.1669 214.915 40.9632 224.528 40.9632C234.141 40.9632 241.016 39.1669 241.016 39.1669C241.016 51.4043 247.499 58.6457 247.499 58.6457C247.499 58.6457 253.144 52.8638 249.231 39.4475Z" fill="#552419"/>
<defs>
<filter id="filter0_b_471_10145" x="-50" y="-50" width="186.752" height="219.573" filterUnits="userSpaceOnUse" color-interpolation-filters="sRGB">
<feFlood flood-opacity="0" result="BackgroundImageFix"/>
<feGaussianBlur in="BackgroundImageFix" stdDeviation="25"/>
<feComposite in2="SourceAlpha" operator="in" result="effect1_backgroundBlur_471_10145"/>
<feBlend mode="normal" in="SourceGraphic" in2="effect1_backgroundBlur_471_10145" result="shape"/>
</filter>
</defs>
</svg>
