<svg width="68" height="68" viewBox="0 0 68 68" fill="none" xmlns="http://www.w3.org/2000/svg">
<g filter="url(#filter0_d_300_15974)">
<rect x="4" width="60" height="60" rx="30" fill="black" shape-rendering="crispEdges"/>
<path d="M35.081 17.7188C35.5067 16.6268 36.2511 15.6881 37.2174 15.0249C38.1838 14.3616 39.3274 14.0045 40.4994 14C40.8076 14 41.1032 14.1224 41.3212 14.3404C41.5391 14.5583 41.6616 14.8539 41.6616 15.1621C41.6616 15.4703 41.5391 15.7659 41.3212 15.9839C41.1032 16.2018 40.8076 16.3243 40.4994 16.3243C39.7949 16.3265 39.1075 16.5411 38.5269 16.9403C37.9464 17.3394 37.4998 17.9044 37.2455 18.5614C37.1602 18.7806 37.0104 18.9688 36.8158 19.1011C36.6213 19.2334 36.3912 19.3035 36.156 19.3022C36.0174 19.2992 35.8802 19.2747 35.7492 19.2296C35.6056 19.1749 35.4743 19.0923 35.3629 18.9866C35.2514 18.8809 35.1621 18.7541 35.0999 18.6136C35.0378 18.4731 35.0041 18.3217 35.0009 18.1681C34.9976 18.0145 35.0249 17.8618 35.081 17.7188ZM48.3438 36.0514C47.4151 35.585 46.6285 34.878 46.066 34.0041C45.5034 33.1302 45.1856 32.1214 45.1455 31.0829C45.1055 30.0444 45.3447 29.0142 45.8382 28.0995C46.3318 27.1849 47.0616 26.4194 47.9516 25.8828C48.0897 25.7952 48.2083 25.68 48.3 25.5445C48.3917 25.409 48.4545 25.2561 48.4845 25.0953C48.5145 24.9345 48.511 24.7692 48.4743 24.6098C48.4376 24.4503 48.3685 24.3002 48.2712 24.1686C46.6921 22.1568 44.3942 20.8358 41.8611 20.4836C39.3279 20.1314 36.7568 20.7754 34.6888 22.2802C33.2151 21.2082 31.4736 20.5648 29.6569 20.4212C27.8403 20.2775 26.0193 20.6391 24.3954 21.4661C22.7715 22.2931 21.4081 23.5531 20.4558 25.1069C19.5036 26.6606 18.9998 28.4475 19 30.2698C19.035 34.1011 20.1914 37.8382 22.3266 41.0196C24.4184 44.1137 27.0768 45.9586 29.4592 45.9586H39.9184C43.1869 45.9586 46.8766 42.4867 48.9104 37.5332C49.0248 37.2607 49.0299 36.9547 48.9243 36.6787C48.8188 36.4026 48.6108 36.178 48.3438 36.0514Z" fill="white"/>
</g>
<defs>
<filter id="filter0_d_300_15974" x="0" y="0" width="68" height="68" filterUnits="userSpaceOnUse" color-interpolation-filters="sRGB">
<feFlood flood-opacity="0" result="BackgroundImageFix"/>
<feColorMatrix in="SourceAlpha" type="matrix" values="0 0 0 0 0 0 0 0 0 0 0 0 0 0 0 0 0 0 127 0" result="hardAlpha"/>
<feOffset dy="4"/>
<feGaussianBlur stdDeviation="2"/>
<feComposite in2="hardAlpha" operator="out"/>
<feColorMatrix type="matrix" values="0 0 0 0 0 0 0 0 0 0 0 0 0 0 0 0 0 0 0.1 0"/>
<feBlend mode="normal" in2="BackgroundImageFix" result="effect1_dropShadow_300_15974"/>
<feBlend mode="normal" in="SourceGraphic" in2="effect1_dropShadow_300_15974" result="shape"/>
</filter>
</defs>
</svg>
