<svg width="24" height="26" viewBox="0 0 24 26" fill="none" xmlns="http://www.w3.org/2000/svg">
<path d="M21.375 2.75H18.5625V1.8125C18.5625 1.56386 18.4637 1.3254 18.2879 1.14959C18.1121 0.973772 17.8736 0.875 17.625 0.875C17.3764 0.875 17.1379 0.973772 16.9621 1.14959C16.7863 1.3254 16.6875 1.56386 16.6875 1.8125V2.75H7.3125V1.8125C7.3125 1.56386 7.21373 1.3254 7.03791 1.14959C6.8621 0.973772 6.62364 0.875 6.375 0.875C6.12636 0.875 5.8879 0.973772 5.71209 1.14959C5.53627 1.3254 5.4375 1.56386 5.4375 1.8125V2.75H2.625C2.12772 2.75 1.65081 2.94754 1.29917 3.29917C0.947544 3.65081 0.75 4.12772 0.75 4.625V23.375C0.75 23.8723 0.947544 24.3492 1.29917 24.7008C1.65081 25.0525 2.12772 25.25 2.625 25.25H21.375C21.8723 25.25 22.3492 25.0525 22.7008 24.7008C23.0525 24.3492 23.25 23.8723 23.25 23.375V4.625C23.25 4.12772 23.0525 3.65081 22.7008 3.29917C22.3492 2.94754 21.8723 2.75 21.375 2.75V2.75ZM21.375 8.375H2.625V4.625H5.4375V5.5625C5.4375 5.81114 5.53627 6.0496 5.71209 6.22541C5.8879 6.40123 6.12636 6.5 6.375 6.5C6.62364 6.5 6.8621 6.40123 7.03791 6.22541C7.21373 6.0496 7.3125 5.81114 7.3125 5.5625V4.625H16.6875V5.5625C16.6875 5.81114 16.7863 6.0496 16.9621 6.22541C17.1379 6.40123 17.3764 6.5 17.625 6.5C17.8736 6.5 18.1121 6.40123 18.2879 6.22541C18.4637 6.0496 18.5625 5.81114 18.5625 5.5625V4.625H21.375V8.375Z" fill="#636363"/>
</svg>
