<svg width="68" height="69" viewBox="0 0 68 69" fill="none" xmlns="http://www.w3.org/2000/svg">
<g filter="url(#filter0_d_471_10238)">
<rect x="4" width="60" height="60" rx="30" fill="white" shape-rendering="crispEdges"/>
<path d="M64 30.969C63.9851 38.3445 61.2949 45.4609 56.4345 50.9819C51.5741 56.503 44.8778 60.049 37.6029 60.9541C37.4406 60.9702 37.2767 60.9523 37.1215 60.9015C36.9664 60.8508 36.8234 60.7683 36.7015 60.6592C36.5795 60.5502 36.4814 60.4169 36.4131 60.2679C36.3448 60.1188 36.3079 59.9571 36.3047 59.793V37.9355H43.2285C43.5441 37.9362 43.8565 37.8716 44.1464 37.746C44.4362 37.6203 44.6974 37.4362 44.9137 37.2049C45.13 36.9737 45.2969 36.7002 45.404 36.4015C45.5111 36.1028 45.5562 35.7852 45.5365 35.4682C45.4854 34.8678 45.2099 34.3091 44.7655 33.9051C44.3211 33.501 43.7409 33.2816 43.142 33.2912H36.3047V26.3247C36.3047 25.0929 36.791 23.9116 37.6567 23.0406C38.5223 22.1696 39.6964 21.6803 40.9206 21.6803H45.5365C45.8521 21.6809 46.1645 21.6164 46.4543 21.4907C46.7442 21.3651 47.0053 21.1809 47.2216 20.9497C47.4379 20.7184 47.6048 20.445 47.7119 20.1463C47.819 19.8476 47.8641 19.5299 47.8444 19.213C47.7934 18.6125 47.5178 18.0539 47.0734 17.6498C46.629 17.2458 46.0488 17.0264 45.4499 17.0359H40.9206C38.4722 17.0359 36.124 18.0146 34.3927 19.7565C32.6615 21.4985 31.6888 23.8611 31.6888 26.3247V33.2912H24.765C24.4494 33.2906 24.137 33.3551 23.8471 33.4808C23.5573 33.6064 23.2961 33.7906 23.0798 34.0218C22.8635 34.2531 22.6967 34.5265 22.5895 34.8252C22.4824 35.1239 22.4373 35.4416 22.4571 35.7585C22.5081 36.359 22.7836 36.9176 23.2281 37.3216C23.6725 37.7257 24.2527 37.9451 24.8515 37.9355H31.6888V59.793C31.6896 59.9558 31.6564 60.1169 31.5914 60.2659C31.5263 60.4149 31.4308 60.5485 31.3111 60.658C31.1914 60.7675 31.0502 60.8504 30.8966 60.9014C30.743 60.9525 30.5804 60.9704 30.4194 60.9541C15.187 59.0964 3.41654 45.7729 4.02237 29.8369C4.36246 21.967 7.74639 14.5426 13.4519 9.14838C19.1573 3.75418 26.7323 0.817532 34.56 0.965277C42.3877 1.11302 49.8479 4.33346 55.3483 9.93917C60.8487 15.5449 63.9535 23.0918 64 30.969V30.969Z" fill="#40549A"/>
</g>
<defs>
<filter id="filter0_d_471_10238" x="0" y="0" width="68" height="68.96" filterUnits="userSpaceOnUse" color-interpolation-filters="sRGB">
<feFlood flood-opacity="0" result="BackgroundImageFix"/>
<feColorMatrix in="SourceAlpha" type="matrix" values="0 0 0 0 0 0 0 0 0 0 0 0 0 0 0 0 0 0 127 0" result="hardAlpha"/>
<feOffset dy="4"/>
<feGaussianBlur stdDeviation="2"/>
<feComposite in2="hardAlpha" operator="out"/>
<feColorMatrix type="matrix" values="0 0 0 0 0 0 0 0 0 0 0 0 0 0 0 0 0 0 0.1 0"/>
<feBlend mode="normal" in2="BackgroundImageFix" result="effect1_dropShadow_471_10238"/>
<feBlend mode="normal" in="SourceGraphic" in2="effect1_dropShadow_471_10238" result="shape"/>
</filter>
</defs>
</svg>
