<svg width="24" height="27" viewBox="0 0 24 27" fill="none" xmlns="http://www.w3.org/2000/svg">
<path d="M22.875 18.6133C22.1836 17.418 21.3516 15.1445 21.3516 11.125V10.293C21.3516 5.10156 17.1914 0.847656 12.0703 0.8125H12C10.7704 0.814038 9.55313 1.05775 8.41772 1.52972C7.2823 2.00169 6.25096 2.69268 5.38259 3.56323C4.51422 4.43378 3.82581 5.46684 3.35669 6.60343C2.88756 7.74003 2.6469 8.9579 2.64844 10.1875V11.125C2.64844 15.1445 1.81641 17.418 1.125 18.6133C0.957785 18.8981 0.868783 19.2221 0.867001 19.5524C0.865219 19.8827 0.95072 20.2076 1.11485 20.4942C1.27898 20.7808 1.51592 21.019 1.80168 21.1847C2.08744 21.3503 2.41189 21.4375 2.74219 21.4375H7.3125C7.3125 22.6807 7.80636 23.873 8.68544 24.7521C9.56451 25.6311 10.7568 26.125 12 26.125C13.2432 26.125 14.4355 25.6311 15.3146 24.7521C16.1936 23.873 16.6875 22.6807 16.6875 21.4375H21.2578C21.588 21.4396 21.9129 21.3539 22.1991 21.1892C22.4853 21.0244 22.7226 20.7866 22.8867 20.5C23.0494 20.2118 23.1339 19.886 23.1318 19.5551C23.1298 19.2241 23.0412 18.8995 22.875 18.6133V18.6133ZM12 24.25C11.255 24.2469 10.5414 23.9496 10.0147 23.4228C9.48789 22.8961 9.19058 22.1825 9.1875 21.4375H14.8125C14.8094 22.1825 14.5121 22.8961 13.9853 23.4228C13.4585 23.9496 12.745 24.2469 12 24.25Z" fill="#636363"/>
</svg>
