<svg width="40" height="40" viewBox="0 0 40 40" fill="none" xmlns="http://www.w3.org/2000/svg">
<rect width="40" height="40" rx="20" fill="white"/>
<path fill-rule="evenodd" clip-rule="evenodd" d="M23.75 11.75C23.75 11.3358 24.0858 11 24.5 11H28.25C28.6642 11 29 11.3358 29 11.75V15.5C29 15.9142 28.6642 16.25 28.25 16.25C27.8358 16.25 27.5 15.9142 27.5 15.5V12.5H24.5C24.0858 12.5 23.75 12.1642 23.75 11.75Z" fill="#940000"/>
<path fill-rule="evenodd" clip-rule="evenodd" d="M11.75 23.75C12.1642 23.75 12.5 24.0858 12.5 24.5V27.5H15.5C15.9142 27.5 16.25 27.8358 16.25 28.25C16.25 28.6642 15.9142 29 15.5 29H11.75C11.3358 29 11 28.6642 11 28.25V24.5C11 24.0858 11.3358 23.75 11.75 23.75Z" fill="#940000"/>
<path fill-rule="evenodd" clip-rule="evenodd" d="M28.25 23.75C28.6642 23.75 29 24.0858 29 24.5V28.25C29 28.6642 28.6642 29 28.25 29H24.5C24.0858 29 23.75 28.6642 23.75 28.25C23.75 27.8358 24.0858 27.5 24.5 27.5H27.5V24.5C27.5 24.0858 27.8358 23.75 28.25 23.75Z" fill="#940000"/>
<path fill-rule="evenodd" clip-rule="evenodd" d="M11 11.75C11 11.3358 11.3358 11 11.75 11H15.5C15.9142 11 16.25 11.3358 16.25 11.75C16.25 12.1642 15.9142 12.5 15.5 12.5H12.5V15.5C12.5 15.9142 12.1642 16.25 11.75 16.25C11.3358 16.25 11 15.9142 11 15.5V11.75Z" fill="#940000"/>
<path fill-rule="evenodd" clip-rule="evenodd" d="M14.75 16.25C14.75 15.4216 15.4216 14.75 16.25 14.75H23.75C24.5784 14.75 25.25 15.4216 25.25 16.25V23.75C25.25 24.5784 24.5784 25.25 23.75 25.25H16.25C15.4216 25.25 14.75 24.5784 14.75 23.75V16.25ZM23.75 16.25H16.25V23.75H23.75V16.25Z" fill="#940000"/>
</svg>
