<svg width="27" height="25" viewBox="0 0 27 25" fill="none" xmlns="http://www.w3.org/2000/svg">
<path d="M24.3752 23.6875C24.3752 23.9361 24.2765 24.1746 24.1007 24.3504C23.9248 24.5262 23.6864 24.625 23.4377 24.625H2.81274C2.5641 24.625 2.32565 24.5262 2.14983 24.3504C1.97402 24.1746 1.87524 23.9361 1.87524 23.6875C1.87524 23.4389 1.97402 23.2004 2.14983 23.0246C2.32565 22.8488 2.5641 22.75 2.81274 22.75H8.43774V14.7812H7.96899C5.8565 14.7782 3.83142 13.9376 2.33766 12.4438C0.843901 10.9501 0.00334391 8.92499 0.000244141 6.8125C0.000244154 5.94226 0.345946 5.10766 0.9613 4.49231C1.57665 3.87695 2.41125 3.53125 3.28149 3.53125C4.15174 3.53125 4.98633 3.87695 5.60169 4.49231C6.21704 5.10766 6.56274 5.94226 6.56274 6.8125C6.56274 7.18546 6.7109 7.54315 6.97463 7.80687C7.23835 8.07059 7.59603 8.21875 7.96899 8.21875H8.43774V4.9375C8.43774 3.6943 8.9316 2.50201 9.81068 1.62294C10.6898 0.74386 11.882 0.25 13.1252 0.25C14.3684 0.25 15.5607 0.74386 16.4398 1.62294C17.3189 2.50201 17.8127 3.6943 17.8127 4.9375V12.9062H18.2815C18.6545 12.9062 19.0121 12.7581 19.2759 12.4944C19.5396 12.2306 19.6877 11.873 19.6877 11.5C19.6877 10.6298 20.0334 9.79516 20.6488 9.17981C21.2642 8.56445 22.0988 8.21875 22.969 8.21875C23.8392 8.21875 24.6738 8.56445 25.2892 9.17981C25.9045 9.79516 26.2502 10.6298 26.2502 11.5C26.2471 13.6125 25.4066 15.6376 23.9128 17.1313C22.4191 18.6251 20.394 19.4657 18.2815 19.4688H17.8127V22.75H23.4377C23.6864 22.75 23.9248 22.8488 24.1007 23.0246C24.2765 23.2004 24.3752 23.4389 24.3752 23.6875Z" fill="#B20000"/>
</svg>
