<svg width="28" height="23" viewBox="0 0 28 23" fill="none" xmlns="http://www.w3.org/2000/svg">
<path d="M22.2149 6.33596C21.5367 4.71672 20.3951 3.33401 18.9335 2.36157C17.4719 1.38912 15.7556 0.8703 14 0.8703C12.2445 0.8703 10.5281 1.38912 9.06654 2.36157C7.60496 3.33401 6.46336 4.71672 5.78518 6.33596C4.32595 7.01218 3.08932 8.08977 2.21983 9.44277C1.35034 10.7958 0.883898 12.3683 0.875028 13.9766C0.863309 18.5235 4.55471 22.3203 9.08987 22.4375C10.466 22.4735 11.83 22.1717 13.0625 21.5586V17.3867L7.95315 14.8438C7.72938 14.7319 7.55921 14.5357 7.4801 14.2983C7.44092 14.1808 7.42528 14.0567 7.43406 13.9332C7.44284 13.8096 7.47588 13.689 7.53128 13.5782C7.58668 13.4673 7.66336 13.3685 7.75695 13.2874C7.85054 13.2062 7.95919 13.1443 8.07672 13.1051C8.31407 13.026 8.57313 13.0444 8.7969 13.1563L13.0625 15.3008V9.31253C13.0625 9.06389 13.1613 8.82543 13.3371 8.64961C13.5129 8.4738 13.7514 8.37503 14 8.37503C14.2487 8.37503 14.4871 8.4738 14.6629 8.64961C14.8388 8.82543 14.9375 9.06389 14.9375 9.31253V12.4883L19.2032 10.3438C19.4269 10.2319 19.686 10.2135 19.9233 10.2926C20.1607 10.3717 20.3569 10.5419 20.4688 10.7657C20.5807 10.9894 20.5991 11.2485 20.52 11.4858C20.4408 11.7232 20.2707 11.9194 20.0469 12.0313L14.9375 14.5742V21.5586C16.103 22.1368 17.3865 22.4376 18.6875 22.4375H18.9102C23.4453 22.3203 27.1367 18.5235 27.125 13.9766C27.1162 12.3683 26.6497 10.7958 25.7802 9.44277C24.9107 8.08977 23.6741 7.01218 22.2149 6.33596V6.33596Z" fill="white"/>
</svg>
