<svg width="68" height="68" viewBox="0 0 68 68" fill="none" xmlns="http://www.w3.org/2000/svg">
<g filter="url(#filter0_d_471_10241)">
<rect x="4" width="60" height="60" rx="30" fill="#0180C7" shape-rendering="crispEdges"/>
<path d="M21.4825 44.5244C21.33 44.453 21.2179 44.372 21.398 44.2119C21.5082 44.1232 21.6276 44.0422 21.747 43.9612C22.862 43.2014 23.9091 42.3702 24.5998 41.1456C25.1785 40.1274 25.0848 39.5276 24.361 38.7774C20.3233 34.5386 18.5524 29.4705 19.4379 23.4825C19.9394 20.1037 21.4126 17.1801 23.5583 14.6422C24.8533 13.1052 26.3927 11.8613 28.0791 10.8257C28.182 10.764 28.3253 10.7447 28.3436 10.5846C28.3087 10.4959 28.25 10.5229 28.1985 10.5229C25.3291 10.5229 22.4597 10.4612 19.5995 10.5403C16.8569 10.629 14.4908 12.8545 14.5 16.0462C14.5166 25.3685 14.5 34.6929 14.5 44.0249C14.5 46.9215 16.6034 49.3437 19.3534 49.4517C21.6772 49.55 24.0028 49.469 26.3358 49.4613C26.5066 49.471 26.6756 49.4787 26.8465 49.4787H39.1415C42.2075 49.4787 45.2716 49.496 48.3375 49.4787C51.1812 49.4787 53.4885 47.0661 53.4885 44.0885V44.0345V38.8044C53.4885 38.6791 53.5307 38.546 53.4535 38.411C53.3011 38.4207 53.2405 38.5537 53.156 38.6444C51.5045 40.3877 49.5536 41.7917 47.4172 42.7829C42.1799 45.2051 36.8508 45.3748 31.4445 43.427C30.9761 43.2477 30.4654 43.2303 29.9804 43.3557C29.2658 43.5428 28.5586 43.7665 27.8513 43.9902C25.7737 44.6671 23.6519 44.9698 21.4825 44.5244ZM27.6548 29.4608C27.7999 29.2641 27.877 29.1484 27.9615 29.0327C29.0766 27.5497 30.1917 26.0647 31.3086 24.5721C31.6319 24.1439 31.9552 23.7042 32.1609 23.1874C32.3997 22.5973 32.1444 22.0438 31.5657 21.8278C31.3104 21.7468 31.0385 21.7121 30.7648 21.7295C29.2493 21.7198 27.7246 21.7198 26.209 21.7295C25.996 21.7295 25.7829 21.7565 25.579 21.8105C25.1013 21.9358 24.8129 22.4449 24.9323 22.9541C25.0168 23.2935 25.2722 23.5615 25.5973 23.6425C25.8012 23.6965 26.0143 23.7235 26.2274 23.7139C27.1478 23.7235 28.0754 23.7139 28.9939 23.7235C29.0968 23.7235 29.2236 23.6522 29.3007 23.8122C29.2236 23.9202 29.1482 24.0263 29.0711 24.1247C27.7521 25.8757 26.4405 27.6384 25.1197 29.3895C24.7964 29.8272 24.6256 30.3094 24.8644 30.8474C25.1032 31.3855 25.5881 31.4819 26.0823 31.5185C26.4736 31.5455 26.874 31.5282 27.2745 31.5282C28.6541 31.5282 30.0245 31.5378 31.4041 31.5185C32.137 31.5089 32.5283 31.0441 32.4512 30.3306C32.3924 29.7675 32.025 29.4724 31.3435 29.4628C30.1402 29.4531 28.9407 29.4608 27.6548 29.4608ZM37.5323 24.7591C36.4687 23.7852 35.293 23.7216 34.143 24.4371C32.7469 25.2953 32.2362 26.6992 32.4052 28.3249C32.5669 29.8446 33.197 31.0866 34.7125 31.5957C35.6567 31.9177 36.5348 31.802 37.31 31.1406C37.5139 30.9708 37.5745 31.0056 37.7178 31.1946C37.9989 31.5706 38.4839 31.7133 38.91 31.5436C39.3362 31.4086 39.6173 30.9978 39.6173 30.5331C39.6265 28.7454 39.6338 26.9576 39.6173 25.1699C39.6081 24.4544 38.9707 23.9993 38.3057 24.142C37.9401 24.223 37.7362 24.4834 37.5323 24.7591ZM43.4327 28.0762C43.3978 30.3113 45.1613 32.0007 47.3749 31.7673C49.4103 31.5533 50.7293 29.9526 50.6613 27.6905C50.5933 25.4553 49.0099 23.928 46.8385 23.9993C44.8031 24.0629 43.3648 25.7793 43.4327 28.0762ZM42.6832 26.2981C42.6832 24.8941 42.6924 23.4998 42.6832 22.0959C42.6832 21.3804 42.2497 20.933 41.6012 20.9426C40.9712 20.9523 40.5542 21.3978 40.545 22.0862C40.5358 22.5066 40.545 22.9174 40.545 23.3378V30.4444C40.545 30.9978 40.8683 31.4819 41.2945 31.5976C41.8823 31.7673 42.4867 31.4009 42.6391 30.7838C42.6649 30.6758 42.6814 30.5697 42.674 30.454C42.6924 29.0674 42.6832 27.6827 42.6832 26.2981Z" fill="#FDFEFE"/>
<path d="M27.7316 29.3743C29.0055 29.3743 30.2029 29.3647 31.3931 29.3743C32.0592 29.3839 32.4213 29.6773 32.4905 30.2373C32.5669 30.9393 32.1793 31.4111 31.4532 31.4188C30.0865 31.436 28.7288 31.4284 27.3621 31.4284C26.9654 31.4284 26.5778 31.4456 26.181 31.4188C25.6915 31.3919 25.211 31.2845 24.9745 30.7513C24.7379 30.2182 24.9071 29.7387 25.2274 29.3014C26.5268 27.5599 27.8335 25.8069 29.142 24.0654C29.2184 23.958 29.293 23.8525 29.3694 23.7547C29.2857 23.6032 29.1674 23.6742 29.0655 23.6665C28.1538 23.6569 27.2347 23.6665 26.3248 23.6569C26.1137 23.6569 25.9026 23.6301 25.7006 23.5859C25.2201 23.4709 24.9253 22.9645 25.0345 22.4659C25.111 22.1283 25.3639 21.8521 25.6842 21.7716C25.8862 21.7179 26.0973 21.691 26.3084 21.691C27.8098 21.6814 29.3203 21.6814 30.8217 21.691C31.091 21.6814 31.3531 21.7179 31.6151 21.7888C32.1884 21.9941 32.4341 22.5541 32.2048 23.141C32.0028 23.6473 31.6825 24.0827 31.3604 24.5181C30.2557 26.0025 29.151 27.4774 28.0446 28.9447C27.9499 29.0636 27.8662 29.1786 27.7316 29.3743Z" fill="white"/>
<path d="M37.3853 24.6529C37.5888 24.3737 37.8015 24.1139 38.1498 24.0422C38.8208 23.8987 39.4496 24.3563 39.4588 25.0756C39.4845 26.873 39.4753 28.6703 39.4588 30.4677C39.4588 30.9349 39.1691 31.3479 38.753 31.4837C38.3276 31.6543 37.8436 31.5205 37.5631 31.1327C37.4183 30.9446 37.3596 30.9078 37.1561 31.0784C36.3824 31.7435 35.5079 31.8598 34.5637 31.536C33.0512 31.0144 32.4315 29.7658 32.261 28.2476C32.0832 26.6035 32.6002 25.2017 33.9954 24.3388C35.1504 23.6118 36.3219 23.6738 37.3853 24.6529ZM34.3767 27.9335C34.3932 28.3291 34.5124 28.7072 34.7342 29.0213C35.1926 29.6689 36.0689 29.8026 36.6886 29.3179C36.7913 29.2365 36.8848 29.1376 36.9691 29.0213C37.4458 28.3388 37.4458 27.2142 36.9691 26.5317C36.7308 26.1808 36.3568 25.9753 35.9571 25.9656C35.0221 25.9035 34.3676 26.6675 34.3767 27.9335ZM43.274 27.9878C43.2062 25.6786 44.6417 23.953 46.6823 23.889C48.8493 23.8173 50.4297 25.3548 50.4975 27.6001C50.5653 29.8744 49.249 31.4817 47.2176 31.6989C44.9992 31.9335 43.2392 30.235 43.274 27.9878ZM45.4062 27.7726C45.3897 28.2224 45.5162 28.6626 45.7711 29.031C46.2386 29.6785 47.1131 29.8046 47.7254 29.3005C47.8189 29.2287 47.8959 29.1395 47.9711 29.0484C48.4643 28.3659 48.4643 27.2142 47.9803 26.5317C47.7419 26.1905 47.3679 25.9753 46.9683 25.9656C46.0534 25.9113 45.4062 26.6481 45.4062 27.7726ZM42.526 26.2002C42.526 27.5923 42.5352 28.9864 42.526 30.3785C42.5352 31.0164 42.0585 31.5476 41.4553 31.5651C41.3527 31.5651 41.2427 31.5554 41.14 31.5282C40.7147 31.4119 40.392 30.9349 40.392 30.3688V23.224C40.392 22.8013 40.3828 22.3883 40.392 21.9656C40.4012 21.2735 40.8173 20.8236 41.4462 20.8236C42.0915 20.8139 42.526 21.2638 42.526 21.9831C42.5352 23.3869 42.526 24.7984 42.526 26.2002Z" fill="white"/>
<path d="M34.4092 28.0045C34.3999 26.7117 35.0644 25.9328 36.0045 25.9881C36.4103 26.0059 36.7901 26.2174 37.0321 26.5753C37.5161 27.2632 37.5161 28.4177 37.0321 29.1136C36.5667 29.7739 35.6769 29.9103 35.0477 29.416C34.9434 29.333 34.8485 29.2322 34.7629 29.1136C34.5469 28.7933 34.4259 28.4078 34.4092 28.0045ZM45.6081 27.8405C45.6081 26.7038 46.2633 25.9446 47.1959 25.998C47.6017 26.0079 47.9815 26.2273 48.2235 26.5753C48.7149 27.2711 48.7149 28.4533 48.2142 29.1412C47.7302 29.7916 46.8329 29.9024 46.2205 29.3884C46.1256 29.3152 46.0474 29.2243 45.9785 29.1235C45.7216 28.7478 45.6006 28.2991 45.6081 27.8405Z" fill="#0180C7"/>
</g>
<defs>
<filter id="filter0_d_471_10241" x="0" y="0" width="68" height="68" filterUnits="userSpaceOnUse" color-interpolation-filters="sRGB">
<feFlood flood-opacity="0" result="BackgroundImageFix"/>
<feColorMatrix in="SourceAlpha" type="matrix" values="0 0 0 0 0 0 0 0 0 0 0 0 0 0 0 0 0 0 127 0" result="hardAlpha"/>
<feOffset dy="4"/>
<feGaussianBlur stdDeviation="2"/>
<feComposite in2="hardAlpha" operator="out"/>
<feColorMatrix type="matrix" values="0 0 0 0 0 0 0 0 0 0 0 0 0 0 0 0 0 0 0.1 0"/>
<feBlend mode="normal" in2="BackgroundImageFix" result="effect1_dropShadow_471_10241"/>
<feBlend mode="normal" in="SourceGraphic" in2="effect1_dropShadow_471_10241" result="shape"/>
</filter>
</defs>
</svg>
